<svg xmlns="http://www.w3.org/2000/svg" width="111" height="37" viewBox="0 0 111 37">
    <defs>
        <linearGradient id="prefix__a" x1="5%" x2="102.182%" y1="69.351%" y2="25.477%">
            <stop offset="0%" stop-color="#3157FA"/>
            <stop offset="99.79%" stop-color="#0E199A"/>
        </linearGradient>
    </defs>
    <g fill="none" fill-rule="evenodd">
        <path fill="url(#prefix__a)" fill-rule="nonzero" d="M24.42 2.914c-5.203 3.122-7.7 9.643-7.7 9.643C13.39 7.7 5.62 8.81 5.62 8.81c11.932 1.803 11.03 10.892 11.03 10.892 1.04-4.995 4.718-10.962 5.689-12.141C27.195 1.387 32.537.416 32.537.416c-3.538 1.457-5.966 3.816-5.966 3.816.624.555 1.04 1.18 1.456 1.873 2.498 4.787-.832 11.378-8.88 15.332-7.076 3.469-15.609 2.636-18.106-2.15-2.498-4.788.832-11.17 8.671-15.194 5.134-2.636 10.892-2.914 14.708-1.18M13.944 14.43S6.73 13.25 6.73 15.956c0 1.11 1.18 2.567 5.065 3.122.694.139 3.052.416 4.578-.555 0 0-.901 1.943-5.341 1.596-.764-.07-5.273-.416-6.869-3.33-.416-.763-.485-2.983 2.845-3.538 1.804-.278 5.134-.07 6.937 1.179"/>
        <path fill="#FFF" fill-rule="nonzero" d="M24.42 2.914c-5.203 3.122-7.77 9.643-7.77 9.643C13.32 7.7 5.55 8.81 5.55 8.81c11.933 1.803 11.1 10.892 11.1 10.892 1.04-4.995 4.787-10.962 5.689-12.141C27.195 1.387 32.537.416 32.537.416c-3.954 0-8.117 2.498-8.117 2.498M13.875 14.43S6.66 13.25 6.66 15.956c0 1.11 1.18 2.567 5.064 3.122.694.139 3.053.416 4.58-.555 0 0-.903 1.943-5.343 1.596-.763-.07-5.272-.416-6.868-3.33-.416-.763-.486-2.983 2.845-3.538 1.873-.278 5.203-.07 6.937 1.179"/>
        <path fill="#DA011C" d="M58.275 7.146L54.598 7.146 49.742 16.095 49.672 16.095 48.285 7.146 44.678 7.146 46.898 20.258 50.782 20.258zM78.186 20.258L81.446 20.258 84.221 6.591 80.891 6.591zM100.039 19.564c.971.416 2.358 1.04 4.37.832 3.4-.347 5.134-1.318 5.412-3.746.347-3.191-4.926-2.081-4.995-3.607 0-.694 1.11-.972 1.873-.972 1.18 0 2.359.625 3.4 1.18l.485-2.567c-1.249-.416-3.122-.625-3.955-.625-2.497 0-5.272 1.388-5.272 3.677 0 3.33 4.995 2.22 4.995 3.608 0 .832-1.249.971-1.804.971-.971 0-2.567-.347-3.885-1.457l-.624 2.706zM74.231 7.146L70.624 7.146 65.698 16.095 65.629 16.095 64.241 7.146 60.634 7.146 62.854 20.258 66.739 20.258zM83.736 20.258L87.066 20.258 89.771 6.591 86.441 6.591z"/>
        <path fill="#DA011C" fill-rule="nonzero" d="M95.113 20.258h3.469c.347-2.914 1.11-5.273 1.249-6.8.208-2.15-1.18-3.33-4.371-3.33-1.596 0-2.844.209-4.301.417l-.347 2.428c1.18-.555 2.567-.763 3.816-.763 1.179 0 1.803.486 1.803 1.18 0 .138 0 .277-.07.416-.485-.07-1.11.069-1.803.069-3.052.139-5.411 1.387-5.62 3.746-.138 1.943.833 2.845 2.984 2.845 1.318 0 2.15-.486 3.26-1.25v.209l-.069.832zm-2.775-2.637c-.139-1.11.763-1.873 2.636-1.942.209 0 .625-.07 1.041-.07-.139 1.11-.347 2.082-.347 2.082-.555.416-1.18.624-1.873.693-.694.07-1.388-.138-1.457-.763zM31.08 20.258h3.538l1.457-2.775h4.579l.277 2.774h3.608l-2.22-13.111h-3.816L31.08 20.258zm9.227-5.134h-2.983l2.358-4.37.625 4.37zM72.566 20.258h3.33l1.943-9.852h-3.33l-1.943 9.851zm2.22-11.309h3.538l.486-2.358h-3.538l-.486 2.358z"/>
        <g fill="#283747">
            <path fill-rule="nonzero" d="M5.62.833c.554 0 1.04.069 1.456.277.417.208.763.416 1.04.694.278.277.486.624.625 1.04.139.417.208.833.208 1.25 0 .623-.138 1.178-.347 1.803-.208.555-.555 1.11-1.04 1.526-.416.486-.971.833-1.665 1.11-.625.278-1.388.416-2.22.416H.555L2.359.832h3.26zM4.092 7.7c.486 0 .971-.07 1.388-.278.416-.208.763-.416 1.11-.763.277-.347.555-.694.693-1.11.14-.416.278-.832.278-1.249 0-.277-.07-.624-.139-.902-.07-.277-.208-.485-.347-.693-.208-.208-.416-.347-.693-.486-.278-.139-.625-.208-1.041-.208H3.677L2.428 7.7h1.665zM10.753 8.95H9.435l1.249-5.62h1.318l-1.249 5.62zm.139-7.216c0-.138 0-.277.07-.416.069-.139.138-.208.207-.277.07-.07.208-.14.347-.14.139-.069.208-.069.347-.069.139 0 .347.07.486.14.139.069.208.277.208.415 0 .14 0 .278-.07.417-.069.138-.138.208-.208.277-.069.07-.208.139-.347.208-.138.07-.208.07-.346.07-.14 0-.347-.07-.486-.139-.139-.07-.208-.278-.208-.486zM12.418 10.337c.347.208.763.347 1.18.486.416.138.832.138 1.248.069.416-.07.763-.208 1.11-.486.347-.277.555-.694.694-1.248l.277-1.11c-.277.346-.555.624-.97.763-.417.138-.764.277-1.25.277-.346 0-.624-.07-.901-.208-.278-.139-.555-.278-.694-.555-.208-.208-.347-.555-.416-.902-.07-.347-.07-.832.069-1.318.139-.486.277-.971.555-1.318.277-.347.555-.694.902-.902.347-.208.763-.416 1.18-.486.416-.138.901-.138 1.317-.138.417 0 .833.069 1.18.138.416.07.763.208 1.11.417l-1.18 5.342c-.138.763-.485 1.318-.902 1.803-.416.416-.901.763-1.456.902-.555.139-1.11.208-1.735.139-.624-.07-1.18-.278-1.665-.555l.347-1.11zm5.203-5.758c-.347-.139-.763-.278-1.18-.278-.277 0-.485.07-.762.139-.278.07-.486.208-.694.347-.208.139-.416.347-.555.555-.139.208-.277.486-.347.832-.07.278-.07.486-.07.763 0 .209.07.417.14.555.069.14.208.278.346.347.14.07.347.14.625.14.277 0 .485-.07.763-.14l.624-.416c.208-.208.347-.347.486-.555.139-.208.208-.416.277-.624l.347-1.665zM20.951 8.95h-1.318l1.249-5.62H22.2l-1.249 5.62zm.139-7.216c0-.138 0-.277.07-.416.069-.139.138-.208.207-.277.07-.07.209-.14.347-.14.14-.069.209-.069.347-.069.139 0 .347.07.486.14.139.069.208.277.208.415 0 .14 0 .278-.07.417-.069.138-.138.208-.207.277-.07.07-.209.139-.347.208-.14.07-.209.07-.347.07-.139 0-.347-.07-.486-.139-.139-.07-.208-.278-.208-.486z" transform="translate(70.763 23.587)"/>
            <path d="M25.808 3.33h2.011l-.208.902H25.53l-.555 2.497c-.139.486-.07.833.07 1.041.138.208.416.277.762.277.278 0 .694-.069 1.041-.208l-.07.972c-.554.138-1.11.277-1.525.277-.278 0-.555-.07-.833-.139-.278-.069-.416-.208-.555-.416-.139-.208-.208-.416-.277-.694-.07-.277 0-.624.069-1.04l.555-2.498-1.18-.07.209-.832h1.179l.486-1.734h1.179l-.277 1.665z" transform="translate(70.763 23.587)"/>
            <path fill-rule="nonzero" d="M33.647 7.284c0 .14-.07.278-.07.347v.278c0 .07.07.138.14.138.069 0 .207.07.346 0l-.208.833c-.208.07-.416.07-.624.07-.209 0-.347-.07-.555-.14-.14-.069-.278-.208-.278-.346-.07-.139-.07-.417 0-.694-.277.416-.624.694-1.04.902-.417.208-.833.347-1.319.347-.416 0-.763-.07-1.11-.208-.277-.14-.555-.347-.693-.625-.14-.277-.278-.624-.278-.971-.07-.347 0-.763.07-1.11.138-.486.277-.902.555-1.249.208-.347.555-.624.901-.902.347-.208.694-.416 1.18-.555.416-.138.902-.208 1.387-.138.416 0 .833.069 1.249.138.416.07.763.208 1.11.417l-.763 3.468zm-.694-2.775l-.624-.208c-.208-.07-.416-.07-.625-.07-.555 0-1.04.14-1.457.487-.416.277-.693.763-.832 1.387-.07.277-.07.486-.07.694 0 .208.07.416.14.555.069.138.207.277.346.416.139.139.347.139.625.139.277 0 .485-.07.693-.139.209-.07.417-.208.625-.347.208-.139.347-.347.485-.555.14-.208.209-.486.278-.694l.416-1.665z" transform="translate(70.763 23.587)"/>
            <path d="M38.364.416l-1.456 6.522c-.07.416-.07.693 0 .832.069.139.277.208.554.208h.209c.069 0 .208 0 .277-.07l-.208.972c-.139 0-.278.07-.416.07h-.416c-.625 0-1.11-.14-1.319-.486-.208-.347-.277-.833-.069-1.665L36.977.277h1.387v.14z" transform="translate(70.763 23.587)"/>
        </g>
    </g>
</svg>
