<svg xmlns="http://www.w3.org/2000/svg" width="29" height="20" viewBox="0 0 29 20">
    <g fill="none" fill-rule="evenodd">
        <path d="M0 0H28V28H0z" transform="translate(.942 -4)"/>
        <path fill="#283747" fill-rule="nonzero" d="M21.982 12.376c-.02-.406-.263-.77-.638-.934-.288-.124-7.153-3.04-14.96.21-.298.124-.518.373-.612.671l-2.035-.89 10.058-4.515L24.25 11.34l-2.267 1.036zM9.05 20.401c.908-.237 2.303-.45 4.391-.45 2.127 0 3.7.223 4.801.477-1.09.257-2.675.48-4.8.48-2.075 0-3.486-.244-4.392-.507zm10.786-1.775c-1.276-.408-3.334-.83-6.395-.83-2.677 0-4.43.33-5.565.707V13.38c5.38-1.986 10.253-.757 11.96-.197v5.443zm7.507-8.315l-13.14-5.56c-.276-.116-.587-.113-.861.01L.636 10.465c-.388.174-.638.562-.636.987.002.427.255.811.646.982l1.417.62v3.97L.816 18.77c-.345.484-.233 1.156.251 1.503.484.344 1.157.233 1.503-.25l.392-.55.222.464c.187.384.571.609.97.608.158 0 .318-.034.47-.107.534-.258.758-.902.5-1.439l-.907-1.877v-3.127l1.316.575c.062.027.125.026.189.04V20.253c-.001.074.013.143.024.215.01.054.02.109.037.163.015.043.026.085.045.126.566 1.399 3.478 2.306 7.613 2.306 3.052 0 8.121-.55 8.511-2.566.01-.043.014-.083.02-.125.004-.042.018-.08.018-.123v-5.507l5.381-2.459c.389-.177.635-.568.63-.995-.006-.427-.265-.81-.658-.976z" transform="translate(.942 -4)"/>
    </g>
</svg>
