<svg xmlns="http://www.w3.org/2000/svg" width="21" height="20" viewBox="0 0 21 20">
    <g fill="none">
        <path d="M0 0H22V22H0z" transform="translate(-.395 -2)"/>
        <path fill="#283747" d="M1.964 2.75c.578 0 1.046.469 1.046 1.047v12.215l5.268-6.967c.37-.489 1.09-.571 1.567-.18l4.745 3.899L19.1 5.979c.322-.485.99-.625 1.49-.313s.645.959.323 1.444l-5.175 7.786c-.352.53-1.106.64-1.603.231l-4.8-3.943-5.902 7.804h14.771c.578 0 1.047.47 1.047 1.048 0 .578-.469 1.047-1.047 1.047H.917V3.797c0-.578.468-1.047 1.047-1.047z" transform="translate(-.395 -2)"/>
    </g>
</svg>
