<svg xmlns="http://www.w3.org/2000/svg" width="114" height="32" viewBox="0 0 114 32">
    <g fill="none">
        <g fill="#005CB9">
            <path d="M3.846 4.244H8.3v.401c0 1.204-.395 2.237-1.128 3.04-.733.802-1.748 1.204-2.932 1.204s-2.198-.402-2.988-1.262c-.79-.803-1.24-1.835-1.24-3.04 0-1.204.395-2.236 1.184-3.039C1.986.746 3 .287 4.184.287c1.804 0 3.214.917 3.834 2.408l-.846.287C6.608 1.835 5.537 1.204 4.24 1.204c-.902 0-1.691.344-2.311.975-.62.631-.902 1.434-.902 2.409 0 .975.338 1.72.958 2.408.62.631 1.41.975 2.312.975.845 0 1.522-.287 2.086-.803.564-.516.902-1.204 1.015-2.064H3.846v-.86zM15.46 2.638l-.056.917h-.339c-1.522 0-2.368 1.147-2.368 2.868v2.351h-.902V2.695h.846v1.491c.564-1.032 1.353-1.548 2.368-1.548h.451zM23.748 2.695v6.079h-.902v-.975c-.508.746-1.24 1.147-2.255 1.147-.733 0-1.297-.23-1.748-.688-.451-.459-.677-1.09-.677-1.893v-3.67h.902v3.441c0 1.147.677 1.892 1.635 1.892 1.24 0 2.086-.86 2.086-2.408V2.695h.959zM32.938 3.44c.564.574.902 1.377.902 2.295 0 .917-.282 1.72-.902 2.293-.564.574-1.297.918-2.086.918-1.015 0-1.804-.344-2.368-1.147v3.04h-.902V2.694h.902v.975c.564-.745 1.353-1.147 2.368-1.147.789 0 1.466.287 2.086.918zm-.677 4.015c.451-.459.62-1.032.62-1.72 0-.689-.225-1.262-.62-1.72-.394-.46-.958-.632-1.578-.632-.564 0-1.128.23-1.58.689-.45.458-.676.974-.676 1.72 0 .688.226 1.262.677 1.72.451.46.958.631 1.579.631.62-.057 1.127-.287 1.578-.688zM41.902 3.44c.62.574.902 1.32.902 2.295 0 .917-.282 1.663-.902 2.293-.62.631-1.353.918-2.255.918-.902 0-1.635-.287-2.255-.918-.62-.63-.902-1.376-.902-2.293 0-.918.282-1.663.902-2.294.62-.631 1.353-.918 2.255-.918.902 0 1.635.287 2.255.918zm-.676 3.958c.45-.46.676-1.033.676-1.72 0-.689-.225-1.262-.676-1.664-.451-.459-.959-.688-1.579-.688s-1.184.23-1.579.688c-.45.459-.676.975-.676 1.663 0 .688.225 1.262.676 1.72.451.46.959.689 1.579.689s1.128-.23 1.579-.688z" transform="translate(15)"/>
        </g>
        <g>
            <path fill="#003764" d="M14.798 6.638L27.281 18.974 31.743 14.548 19.26 2.213z" transform="translate(0 13)"/>
            <path fill="#005CB9" d="M18.13 1.106c-1.242-1.217-3.219-1.217-4.461 0L0 14.548l4.462 4.426 11.41-11.285c2.485-2.434 6.495-2.434 8.924 0L18.13 1.106z" transform="translate(0 13)"/>
            <path fill="#003764" d="M74.161 6.638L86.643 18.974 91.106 14.548 78.623 2.213z" transform="translate(0 13)"/>
            <path fill="#0060A4" d="M77.493 1.106c-1.242-1.217-3.22-1.217-4.462 0L59.306 14.548l4.462 4.426 11.41-11.285c2.485-2.434 6.495-2.434 8.924 0l-6.609-6.583z" transform="translate(0 13)"/>
            <path fill="#A32035" d="M46.937 12.557L34.398 0.221 29.935 4.591 42.475 16.927z" transform="translate(0 13)"/>
            <path fill="#E1251B" d="M43.604 18.033c1.243 1.217 3.22 1.217 4.462 0L61.735 4.591 57.273.166l-11.41 11.285c-2.485 2.434-6.495 2.434-8.98 0l6.721 6.582z" transform="translate(0 13)"/>
            <path fill="#003764" d="M94.438 0.166L100.369 0.166 100.369 14.548 94.438 14.548z" transform="translate(0 13)"/>
            <path fill="#0060A4" d="M94.438 15.987c0 1.604 1.356 2.931 2.994 2.931h16.436V13.11h-13.5c-3.275 0-5.93-2.6-5.93-5.863v8.74z" transform="translate(0 13)"/>
        </g>
    </g>
</svg>
