<svg xmlns="http://www.w3.org/2000/svg" width="22" height="20" viewBox="0 0 22 20">
    <g fill="none">
        <path d="M0 0H24V24H0z" transform="translate(-1 -2)"/>
        <path fill="#283747" d="M14 2c1.7 0 3 1.3 3 3v1h3c1.7 0 3 1.3 3 3v10c0 1.7-1.3 3-3 3H4c-1.7 0-3-1.3-3-3V9c0-1.7 1.3-3 3-3h3V5c0-1.7 1.3-3 3-3zm1 6H9v12h6V8zM7 8H4c-.6 0-1 .4-1 1v10c0 .6.4 1 1 1h3V8zm13 0h-3v12h3c.6 0 1-.4 1-1V9c0-.6-.4-1-1-1zm-6-4h-4c-.6 0-1 .4-1 1v1h6V5c0-.6-.4-1-1-1z" transform="translate(-1 -2)"/>
    </g>
</svg>
