<svg xmlns="http://www.w3.org/2000/svg" width="24" height="21" viewBox="0 0 24 21">
    <g fill="none" fill-rule="evenodd">
        <path d="M0 0H24V24H0z" transform="translate(0 -2)"/>
        <path fill="#283747" fill-rule="nonzero" d="M11.992 20.288c-1.263-.755-5.111-3.32-7.292-7.576h3.308c.38 0 .722-.233.86-.59l.545-1.407 1.843 6.562c.108.385.451.656.851.673h.038c.385 0 .731-.24.866-.602l2.251-6.07.827 1.478c.164.291.471.472.806.472h2.123c-2.198 4.063-5.809 6.369-7.026 7.06M4.806 5.627c.767-1.132 1.8-1.78 2.834-1.78 1.343 0 2.811 1.17 3.566 2.326.342.522 1.205.522 1.545 0 .756-1.156 2.223-2.327 3.566-2.327 1.52 0 2.454.894 2.968 1.644 1.073 1.562 1.295 3.914.572 5.892h-2.422l-1.54-2.749c-.175-.314-.518-.497-.876-.469-.359.028-.668.262-.793.6l-1.96 5.282-1.825-6.5c-.107-.381-.448-.653-.845-.671-.417-.014-.761.219-.904.589l-1.318 3.402H3.931c-.47-1.727-.153-3.719.875-5.24m18.27 5.756h-1.285c.672-2.395.319-5.04-.983-6.937C19.725 2.87 18.13 2 16.318 2c-1.659 0-3.24.988-4.34 2.177C10.88 2.987 9.3 2 7.64 2c-1.658 0-3.247.944-4.362 2.592-1.229 1.816-1.659 4.158-1.232 6.274H.923c-.51 0-.923.414-.923.923 0 .51.413.923.923.923H2.66c2.742 6.182 8.636 9.316 8.893 9.45.134.07.28.104.426.104.137 0 .274-.03.4-.092.251-.121 5.877-2.892 8.705-8.946h1.993c.51 0 .923-.413.923-.923s-.413-.923-.923-.923" transform="translate(0 -2)"/>
    </g>
</svg>
