<svg xmlns="http://www.w3.org/2000/svg" width="20" height="20" viewBox="0 0 20 20">
    <g fill="none" fill-rule="evenodd">
        <path d="M0 0H20V20H0z"/>
        <path fill="#283747" fill-rule="nonzero" d="M17.59 3.555c-.267.299-2.497 2.58-3.333 3.434-.172.175-.258.417-.235.66l.881 9.5-.563.398-2.962-5.923c-.116-.234-.337-.4-.596-.448-.258-.045-.523.031-.715.209L7.29 13.957c-.176.162-.272.392-.267.63 0 0 .056 2.577.062 3.58-.215-.538-1.374-3.021-1.423-3.127-.081-.173-.218-.313-.389-.396 0 0-3.288-1.61-3.481-1.707-.013-.007-.027-.017-.041-.028.045.004.09.01.122.015.244.036 2.696.249 3.442.314.245.023.487-.066.66-.24 0 0 9.793-9.758 10.615-10.58.605-.604 1.367-.91 1.628-.658.369.354-.227 1.344-.627 1.795zM2.557 5.576l.455-.454 7.575.927-2.65 2.64-5.38-3.113zM19.373.558c-.985-.947-2.615-.667-3.962.68-.286.287-1.659 1.655-3.324 3.315l-9.081-1.11c-.371-.05-.755.084-1.022.35L.977 4.8c-.272.272-.4.648-.349 1.03.05.382.27.712.604.905l5.482 3.173-1.642 1.636c-1.19-.104-2.795-.247-2.98-.272-1.293-.187-1.79.52-1.97.956-.409.993.287 1.882.914 2.195.17.085 2.452 1.203 3.238 1.588.391.839 1.12 2.415 1.264 2.777.34.852 1.042 1.213 1.61 1.213.054 0 .107-.004.159-.01.894-.111 1.45-.743 1.45-1.65 0-.515-.043-2.563-.061-3.415l1.689-1.563 2.566 5.133c.192.384.54.665.957.769.418.104.857.022 1.207-.225l.842-.594c.429-.304.665-.816.616-1.338l-.856-9.228c.778-.794 2.825-2.889 3.119-3.218 1.101-1.24 1.695-2.99.537-4.104z"/>
    </g>
</svg>
