<svg xmlns="http://www.w3.org/2000/svg" width="22" height="22" viewBox="0 0 22 22">
    <g fill="none" fill-rule="evenodd">
        <path d="M0 0H22V22H0z"/>
        <path fill="#283747" fill-rule="nonzero" d="M18.277 18.333v1.572h-2.57v-1.572h2.57zm-11.833 0v1.572h-2.57v-1.572h2.57zm4.415-16.48c4.933 0 5.563 1.192 5.903 1.833.205.39.955 2.355 1.65 4.243h-.041c-.018.61-.71 1.393-.892 1.471H4.7c-.306 0-.444-.102-.532-.19-.33-.334-.394-1.047-.39-1.27h-.013l1.811-4.451c.007-.017.718-1.636 5.283-1.636zm8.74 9.394c.042.122.062.243.064.341l-.021 1.208h-2.028c-.512 0-.926.414-.926.926s.414.927.926.927h1.993l-.033 1.831H2.451l-.074-1.831h1.988c.512 0 .926-.415.926-.927s-.414-.926-.926-.926H2.303l-.037-.92c0-.16.028-.317.08-.45l.415-1.022c.03.032.049.066.078.097.48.492 1.123.752 1.861.752H17.48c.6 0 1.252-.415 1.77-1.013.142.403.266.754.35 1.007zM22 8.035c0-.511-.402-.926-.898-.926h-1.019c-.683-1.853-1.424-3.796-1.685-4.29C17.624 1.356 16.174 0 10.86 0 5.151 0 4.011 2.362 3.833 2.864L2.105 7.11H.898C.4 7.109 0 7.524 0 8.035c0 .511.401.926.898.926h.453L.626 10.74c-.142.363-.213.745-.212 1.174l.193 4.79c0 .84.621 1.527 1.414 1.612v1.943c0 .827.653 1.498 1.455 1.498h3.367c.802 0 1.454-.671 1.454-1.498v-1.926h5.557v1.926c0 .827.652 1.498 1.454 1.498h3.367c.803 0 1.455-.671 1.455-1.498v-1.955c.31-.058.594-.207.822-.44.307-.312.478-.747.47-1.158l.094-5.116c-.005-.32-.06-.634-.16-.934-.104-.305-.323-.93-.6-1.695h.346c.496 0 .898-.415.898-.926z"/>
    </g>
</svg>
