<svg xmlns="http://www.w3.org/2000/svg" width="8" height="88" viewBox="0 0 8 88">
    <path fill="#161616" fill-rule="evenodd" d="M7.157 88H8V55.801h-.843V88zM0 88h.843V55.801H0V88zm2.906-54.984v.004l-1.615 1.038v.42h2.194V34.1H1.873v-.01l1.612-1.034v-.42H1.291v.379h1.615zm.264-1.672v.392H1.604v-.392c0-.622.346-.758.783-.758.44 0 .783.136.783.758zm-1.879-.153v.942h2.194v-.942c0-.7-.493-1.001-1.098-1.001-.605 0-1.096.3-1.096 1.001zM3.223 8.494c0 .49-.416.694-.836.694s-.836-.204-.836-.694c0-.33.186-.499.437-.565v-.396c-.473.047-.747.452-.748.961 0 .684.52 1.09 1.147 1.09s1.148-.406 1.148-1.09c0-.548-.362-.933-.886-.965v.386c.32.033.574.229.574.58zm3.687 22.7c0 .487-.417.692-.836.692-.424 0-.835-.205-.835-.692 0-.331.183-.5.435-.568v-.398c-.471.05-.745.453-.749.966 0 .68.521 1.089 1.15 1.089.623 0 1.147-.41 1.147-1.089 0-.55-.363-.936-.885-.968v.39c.316.03.573.225.573.578zM1.291 7.134h2.194v-.397H1.291v.398zM6.197 34.72v-1.147h-.315v1.147h-.574V33.48h-.332v1.634H7.17v-1.658h-.332v1.262h-.64zm-4.906 2.077v1.842h.332v-.72h1.862v-.398H1.623v-.724h-.332zm1.615 2.506v.006l-1.615 1.038v.419h2.194v-.376H1.873v-.011l1.612-1.035v-.418H1.291v.377h1.615zm3.948-2.645v.39H5.291v-.39c0-.624.34-.759.783-.759.44 0 .78.135.78.76zm-1.878-.152v.942H7.17v-.942c0-.7-.49-1.004-1.095-1.004-.606 0-1.098.303-1.098 1.004zM2.512 5.82V4.673h-.314V5.82h-.575V4.58h-.332v1.635h2.194V4.558h-.332V5.82h-.64zm-1.22 35.847h2.193v-.398H1.291v.398zM2.905 14.83v.006l-1.615 1.037v.422h2.194v-.378H1.873v-.01l1.612-1.036v-.42H1.291v.379h1.615zm-.295-1.35l-.942-.343v-.011l.942-.338v.692zm-1.32-.14l2.194.872v-.41l-.581-.214v-.906l.581-.212v-.429l-2.194.874v.425zm1.32 8.38l-.942-.345v-.01l.942-.34v.694zm-1.32-.143l2.194.874v-.411l-.581-.213v-.908l.581-.212v-.427l-2.194.877v.42zm5.62 7.286c0 .487-.418.69-.837.69-.424 0-.835-.203-.835-.69 0-.488.411-.69.835-.69.42 0 .836.202.836.69zm-1.986 0c0 .68.521 1.09 1.15 1.09.623 0 1.147-.41 1.147-1.09 0-.682-.524-1.09-1.148-1.09-.628 0-1.149.408-1.149 1.09zM6.297 16.55l-.941-.345v-.009l.941-.341v.695zm-1.32-.14l2.192.871v-.409l-.582-.214v-.906l.582-.215v-.425l-2.193.875v.422zm1.877 2.697v.703h-.683v-.703c0-.243.121-.383.341-.383.22 0 .342.14.342.383zm-1.563.703v-.649c0-.216.08-.335.3-.335.194 0 .305.142.305.335v.649H5.29zm.702-1.057h-.005c-.087-.206-.246-.325-.469-.325-.366 0-.543.267-.543.676v1.103H7.17v-1.043c0-.589-.267-.837-.611-.837-.296 0-.506.15-.565.426zm.701 3.129v.007l-1.718.628v.56H7.17v-.379H5.475v-.007l1.694-.63v-.328l-1.694-.63v-.01H7.17v-.377H4.976v.554l1.718.612zm-3.209 4.057H1.291v.378h1.615v.008l-1.615 1.037v.419h2.194v-.38H1.873v-.007l1.612-1.036v-.419zm1.491 1.042v.4H7.17v-1.553h-.332v1.153h-1.86zm-3.685-3.877h2.194v-.398H1.291v.398zm5.62 1.448c0 .489-.418.693-.837.693-.424 0-.835-.204-.835-.693 0-.487.411-.69.835-.69.42 0 .836.203.836.69zm-1.986 0c0 .68.521 1.09 1.15 1.09.623 0 1.147-.41 1.147-1.09 0-.68-.524-1.087-1.148-1.087-.628 0-1.149.407-1.149 1.087zM2.906 10.346v.006L1.291 11.39v.42h2.194v-.38H1.873v-.008l1.612-1.033v-.422H1.291v.379h1.615zm2.07 7.59H7.17v-.399H4.976v.398zM3.153 34.84v1.262h-.64v-1.146h-.315v1.146h-.575v-1.237h-.332V36.5h2.194v-1.66h-.332zm0-6.697v1.263h-.64v-1.148h-.315v1.148h-.575v-1.24h-.332v1.636h2.194v-1.659h-.332zM2.611 1.438l-.942-.343v-.009L2.61.743v.695zM1.29.875v.423l2.194.873v-.41l-.581-.214V.64l.581-.213V0L1.291.875zm2.244 23.594c0-.552-.362-.938-.886-.968v.387c.32.032.574.226.574.581 0 .487-.416.69-.836.69s-.836-.203-.836-.69c0-.332.186-.502.437-.567v-.4c-.473.05-.747.452-.748.967 0 .68.52 1.087 1.147 1.087s1.148-.406 1.148-1.087zM1.29 17.196h2.194v-.398H1.291v.398zM2.29 42.89v.651h-.685v-.646c0-.206.056-.394.337-.394.23 0 .348.136.348.39zm.153-.412h-.004c-.025-.073-.135-.375-.555-.375-.37 0-.592.255-.592.75v1.084h2.194v-.396h-.903v-.585c0-.368.178-.453.581-.453.105 0 .229 0 .322-.06v-.426c-.088.086-.322.123-.579.123-.346 0-.444.2-.464.338zm.07-23.76v-1.03h-.314v1.03h-.575v-1.171h-.332v1.567h2.194v-.396h-.973zM2.29 3.13v.652h-.685v-.645c0-.208.056-.395.337-.395.23 0 .348.136.348.389zm.153-.412h-.004c-.025-.072-.135-.374-.555-.374-.37 0-.592.254-.592.75V4.18h2.194v-.399h-.903v-.585c0-.366.178-.452.581-.452.105 0 .229 0 .322-.058v-.429c-.088.086-.322.124-.579.124-.346 0-.444.2-.464.336zm.127 46.304c.295 0 .634.02.634.533 0 .517-.34.537-.634.537H1.291v.399h1.404c.561 0 .84-.373.84-.936 0-.556-.279-.93-.84-.93H1.291v.397H2.57zm-.24-1.869v.583h-.725v-.588c0-.21.075-.394.362-.394.277 0 .364.22.364.4zm-1.038-.021v1.003h2.194v-.4h-.843v-.603c.005-.648-.401-.773-.672-.773-.273 0-.679.125-.679.773zm1.221-1.551v-1.144h-.314v1.144h-.575v-1.24h-.332v1.64h2.194V44.32h-.332v1.259h-.64zm-.223 5.704c-.035.119-.16.621-.168.656-.044.163-.13.27-.284.27-.221 0-.286-.23-.286-.416 0-.273.106-.471.39-.49v-.399c-.459 0-.701.398-.701.874 0 .41.206.828.643.828.23 0 .456-.112.558-.5.083-.313.121-.521.182-.679.03-.092.101-.187.268-.187.166 0 .332.13.332.48 0 .318-.132.576-.47.576v.399c.544-.01.782-.431.782-.95 0-.452-.194-.905-.687-.905-.225 0-.472.145-.559.443zm.992 16.47v-.01l1.263-.452v.926l-1.263-.464zm1.828-.666l.768-.271v-.814L2.43 67.337v.805l3.447 1.356v-.795l-.768-.282v-1.333zm-2.68 16.553v.81l2.425.805v.011l-2.424.796v.81l3.447-1.161v-.884L2.43 83.64zM5.24 63.305v.701H3.066v-.558c0-.782.448-1.033 1.142-1.033.761 0 1.032.436 1.032.89zM4.133 61.63c-1.143 0-1.703.694-1.703 1.621v1.54h3.447v-1.54c0-1.091-.742-1.621-1.744-1.621zm.033-2.078c-.603 0-1.178-.265-1.178-.97s.575-.97 1.178-.97c.577 0 1.154.265 1.154.97s-.577.97-1.154.97zm0-2.726c-1.02 0-1.816.65-1.816 1.756 0 1.107.796 1.757 1.816 1.757.997 0 1.793-.65 1.793-1.757 0-1.106-.796-1.756-1.793-1.756zM2.43 82.434h3.447v-.785H2.43v.785zm0-7.073h3.447v-.784H2.43v.784zm.558 3.097c0-.37.196-.665.575-.755v-.75c-.78.085-1.213.776-1.213 1.505 0 1.108.796 1.756 1.816 1.756.997 0 1.793-.648 1.793-1.756 0-.346-.13-.704-.474-.98l.392-.08v-.502H4.013v1.502h.565v-.79c.478.045.742.34.742.85 0 .706-.577.972-1.154.972-.603 0-1.178-.266-1.178-.972zm-.558-5.473h3.447V70.46H5.24V72.2H2.43v.784z"/>
</svg>
