<svg xmlns="http://www.w3.org/2000/svg" width="16" height="16" viewBox="0 0 16 16">
    <g fill="none" fill-rule="evenodd">
        <g>
            <g>
                <g>
                    <g>
                        <path fill-rule="nonzero" d="M0 0H16V16H0z" transform="translate(-78.000000, -384.000000) translate(0.000000, -326.879418) translate(70.000000, 702.879418) translate(8.000000, 8.000000)"/>
                        <path fill="#E1001D" d="M2.578 14c-.32 0-.641-.06-.962-.239C.72 13.284.4 12.15.911 11.313L6.36 2.836c.128-.239.384-.478.64-.597.45-.239.962-.299 1.475-.18.513.12.897.419 1.218.837l5.384 8.417c.192.299.256.597.256.896 0 .478-.192.955-.577 1.254-.32.358-.769.537-1.281.537H2.578zM7.44 3.621l-5.35 8.176c-.191.29-.064.638.255.812.063.058.19.058.254.058h10.764c.191 0 .319-.058.446-.174.127-.116.191-.232.191-.406 0-.116 0-.174-.064-.29L8.586 3.62c-.19-.29-.573-.348-.891-.232-.128.058-.191.116-.255.232zm1.227 4.864V6.097C8.667 5.739 8.4 5.5 8 5.5s-.667.239-.667.597v2.388c0 .358.267.597.667.597s.667-.239.667-.597zm-.7 3.182c.46 0 .833-.373.833-.834 0-.46-.373-.833-.833-.833-.46 0-.834.373-.834.833 0 .46.373.834.834.834z" transform="translate(-78.000000, -384.000000) translate(0.000000, -326.879418) translate(70.000000, 702.879418) translate(8.000000, 8.000000)"/>
                    </g>
                </g>
            </g>
        </g>
    </g>
</svg>
