<svg xmlns="http://www.w3.org/2000/svg" xmlns:xlink="http://www.w3.org/1999/xlink" width="164" height="29" viewBox="0 0 164 29">
    <defs>
        <path id="qc5zq2o06a" d="M0 28.047L163.49 28.047 163.49 0 0 0z"/>
    </defs>
    <g fill="none" fill-rule="evenodd">
        <g>
            <g transform="translate(-266 -24) translate(266 24)">
                <path fill="#1D1D1B" d="M38.7 15.97c.143 1.081.961 1.622 2.456 1.622.573 0 1.027-.112 1.36-.334.334-.223.5-.51.5-.86 0-.524-.436-.882-1.31-1.072l-2.434-.502c-1.081-.222-1.912-.627-2.492-1.216-.58-.588-.87-1.312-.87-2.17 0-1.161.44-2.108 1.323-2.84.882-.73 2.063-1.097 3.543-1.097 1.383 0 2.539.327 3.47.979.93.652 1.498 1.502 1.706 2.552l-3.006.596c-.064-.492-.298-.89-.704-1.192-.405-.302-.927-.454-1.563-.454-.572 0-.985.115-1.24.346-.254.23-.382.505-.382.823 0 .51.359.843 1.075 1.002l2.837.62c1.018.223 1.793.632 2.326 1.23.533.595.8 1.307.8 2.133 0 1.288-.474 2.275-1.42 2.959-.946.683-2.214 1.026-3.805 1.026-1.415 0-2.624-.29-3.625-.872-1.002-.58-1.575-1.458-1.718-2.635l3.173-.644zM50.709 10.817c-.565.382-.934.923-1.11 1.622h5.75c-.192-.731-.54-1.28-1.05-1.646-.509-.365-1.098-.548-1.765-.548-.652 0-1.26.19-1.825.572zm7.86 3.84h-9.065c.159.844.513 1.515 1.061 2.017.55.5 1.19.75 1.92.75 1.353 0 2.339-.524 2.959-1.573l2.814.596c-.509 1.208-1.264 2.123-2.266 2.743-1.002.62-2.17.93-3.506.93-1.718 0-3.165-.588-4.342-1.765-1.176-1.177-1.765-2.687-1.765-4.533 0-1.844.593-3.359 1.777-4.543 1.185-1.185 2.644-1.778 4.378-1.778 1.622 0 3.018.569 4.186 1.706 1.169 1.137 1.785 2.596 1.849 4.377v1.074zM67.37 15.48c.636-.58.954-1.323.954-2.23 0-.906-.318-1.65-.954-2.23-.636-.58-1.384-.87-2.243-.87-.953 0-1.74.285-2.361.858-.62.573-.93 1.32-.93 2.243 0 .922.31 1.67.93 2.242.62.573 1.408.859 2.361.859.86 0 1.607-.29 2.243-.871zm4.007 3.138c0 1.797-.573 3.192-1.717 4.186-1.146.994-2.696 1.49-4.652 1.49-2.767 0-4.699-.874-5.796-2.623l2.552-1.932c.493.62.97 1.061 1.431 1.324.461.262 1.065.393 1.813.393 1.018 0 1.825-.294 2.421-.882.597-.589.895-1.4.895-2.433v-.191c-.906.731-2.154 1.097-3.745 1.097-1.527 0-2.87-.564-4.032-1.693-1.16-1.13-1.74-2.498-1.74-4.103 0-1.591.58-2.947 1.74-4.068 1.162-1.121 2.505-1.682 4.032-1.682 1.559 0 2.807.367 3.745 1.098v-.74h3.03l.023 10.759zM84.877 19.763h-3.149v-1.074c-.954.954-2.202 1.432-3.745 1.432-1.43 0-2.584-.465-3.458-1.396-.875-.93-1.312-2.135-1.312-3.614V7.86h3.148v6.583c0 .843.219 1.519.656 2.028.438.508 1.022.763 1.753.763 1.972 0 2.958-1.368 2.958-4.103V7.86h3.149v11.903zM95.275 7.788l-.167 3.03h-.692c-2.83 0-4.245 1.701-4.245 5.104v3.84h-3.149V7.86h3.149v2.17c1.081-1.558 2.504-2.337 4.27-2.337.365 0 .644.032.834.096M103.814 16.387c.684-.66 1.026-1.514 1.026-2.564s-.342-1.904-1.026-2.565c-.684-.659-1.463-.99-2.338-.99-.906 0-1.705.327-2.398.978-.69.652-1.036 1.512-1.036 2.577s.345 1.924 1.036 2.576c.693.652 1.492.978 2.398.978.875 0 1.654-.33 2.338-.99m2.207-7.06c1.248 1.168 1.872 2.667 1.872 4.496 0 1.829-.624 3.327-1.872 4.496-1.248 1.169-2.763 1.754-4.545 1.754-1.813 0-3.348-.585-4.603-1.754-1.257-1.169-1.884-2.667-1.884-4.496 0-1.83.627-3.328 1.884-4.496 1.255-1.17 2.79-1.754 4.603-1.754 1.782 0 3.297.585 4.545 1.754M111.255 15.97c.143 1.081.961 1.622 2.456 1.622.573 0 1.027-.112 1.36-.334.334-.223.501-.51.501-.86 0-.524-.437-.882-1.311-1.072l-2.434-.502c-1.081-.222-1.912-.627-2.492-1.216-.58-.588-.87-1.312-.87-2.17 0-1.161.44-2.108 1.323-2.84.882-.73 2.063-1.097 3.543-1.097 1.383 0 2.54.327 3.47.979.93.652 1.498 1.502 1.706 2.552l-3.006.596c-.063-.492-.298-.89-.704-1.192-.405-.302-.927-.454-1.563-.454-.572 0-.985.115-1.24.346-.254.23-.382.505-.382.823 0 .51.359.843 1.075 1.002l2.837.62c1.018.223 1.794.632 2.327 1.23.533.595.799 1.307.799 2.133 0 1.288-.474 2.275-1.42 2.959-.946.683-2.214 1.026-3.804 1.026-1.416 0-2.625-.29-3.626-.872-1.002-.58-1.575-1.458-1.718-2.635l3.173-.644zM132.293 16.387c.684-.66 1.026-1.514 1.026-2.564s-.342-1.909-1.026-2.577c-.684-.667-1.471-1.001-2.362-1.001-.97 0-1.77.326-2.397.978-.628.652-.942 1.518-.942 2.6 0 1.081.314 1.944.942 2.588.628.645 1.427.966 2.397.966.89 0 1.678-.33 2.362-.99zm4.173 3.376h-3.147v-.93c-1.066.858-2.378 1.288-3.937 1.288-1.574 0-2.942-.597-4.102-1.79-1.162-1.192-1.742-2.695-1.742-4.508 0-1.813.585-3.32 1.753-4.52 1.17-1.201 2.533-1.801 4.091-1.801 1.575 0 2.887.437 3.937 1.312V7.86h3.147v11.903z"/>
                <mask id="n9wsxdrnob" fill="#fff">
                    <use xlink:href="#qc5zq2o06a"/>
                </mask>
                <path fill="#1D1D1B" d="M138.612 19.763L141.761 19.763 141.761 2.587 138.612 2.587zM151.278 7.86v2.576h-3.602v9.326h-3.149v-9.326h-1.813V7.859h1.813V6.786c0-1.383.43-2.48 1.288-3.292.859-.811 1.997-1.216 3.412-1.216.763 0 1.47.15 2.123.452l-.716 2.553c-.43-.143-.826-.214-1.193-.214-.524 0-.95.15-1.276.453-.326.302-.489.723-.489 1.264V7.86h3.602z" mask="url(#n9wsxdrnob)"/>
                <path fill="#1D1D1B" d="M159.315 16.387c.685-.66 1.027-1.514 1.027-2.564s-.342-1.909-1.027-2.577c-.683-.667-1.47-1.001-2.36-1.001-.971 0-1.77.326-2.398.978-.628.652-.943 1.518-.943 2.6 0 1.081.315 1.944.943 2.588.627.645 1.427.966 2.397.966.89 0 1.678-.33 2.361-.99zm4.174 3.376h-3.147v-.93c-1.066.858-2.379 1.288-3.937 1.288-1.574 0-2.942-.597-4.103-1.79-1.161-1.192-1.741-2.695-1.741-4.508 0-1.813.585-3.32 1.753-4.52 1.17-1.201 2.532-1.801 4.09-1.801 1.576 0 2.888.437 3.938 1.312V7.86h3.147v11.903z" mask="url(#n9wsxdrnob)"/>
                <path fill="#00957F" d="M14.99 0L1.789 2.832 14.8 5.65 28.703 2.936zM5.164 9.902c-1.466 0-2.656 2.299-2.656 5.133 0 2.835 1.19 5.133 2.656 5.133 1.468 0 2.659-2.298 2.659-5.133 0-2.834-1.19-5.133-2.659-5.133" mask="url(#n9wsxdrnob)"/>
                <path fill="#00957F" d="M11.587 25.881s-1.577-5.622-2.551-6.998l-.277-.468c-.65 2.571-2.014 4.348-3.595 4.348-2.209 0-3.998-3.46-3.998-7.729 0-4.266 1.79-7.725 3.998-7.725 1.786 0 3.3 2.262 3.813 5.383l.23-.44s1.976-3.631 2.243-5.233l1.388.052s-1.497 4.86-3.472 8.278c0 0 3.472 8.224 3.738 9.987l-1.517.545zM0 3.583l.008 19.854 14.203 4.61V6.647L0 3.583zM20.857 10.544c-1.547-.095-2.93 2.163-3.093 5.044-.165 2.882.953 5.295 2.5 5.39 1.55.095 2.934-2.162 3.097-5.045.163-2.88-.959-5.295-2.504-5.39" mask="url(#n9wsxdrnob)"/>
                <path fill="#00957F" d="M27.733 23.525s-1.988-5.167-3.043-6.374l-.014-.091c-.493 3.827-2.424 6.688-4.56 6.555-2.327-.143-4.015-3.778-3.77-8.114.247-4.338 2.333-7.737 4.66-7.593 1.36.083 2.496 1.362 3.162 3.271l.128-.31s1.596-3.62 1.72-5.156l.025-.417 1.415-.345-.101.68s-1.027 4.708-2.631 8.119l.005.063c.192.354 4.025 7.456 4.42 9.056l-1.416.656zM15.298 6.69l-.043 21.332 14.493-4.625V3.51l-14.45 3.18z" mask="url(#n9wsxdrnob)"/>
            </g>
        </g>
    </g>
</svg>
