<svg xmlns="http://www.w3.org/2000/svg" width="16" height="16" viewBox="0 0 16 16">
    <g fill="none" fill-rule="evenodd">
        <g>
            <g>
                <g>
                    <path fill-rule="nonzero" d="M0 0H16V16H0z" transform="translate(-367 -168) translate(359 160) translate(8 8)"/>
                    <path fill="#0054BF" d="M8 1.333c3.697 0 6.667 2.97 6.667 6.667 0 3.697-2.97 6.667-6.667 6.667-3.697 0-6.667-2.97-6.667-6.667 0-3.697 2.97-6.667 6.667-6.667zm0 1.334c-2.963 0-5.333 2.37-5.333 5.333S5.037 13.333 8 13.333s5.333-2.37 5.333-5.333S10.963 2.667 8 2.667zm0 4.666c.4 0 .667.35.667.75v2.5c0 .4-.267.75-.667.75s-.667-.35-.667-.75v-2.5c0-.4.267-.75.667-.75zm.033-2.5c.46 0 .834.373.834.834 0 .46-.373.833-.834.833-.46 0-.833-.373-.833-.833 0-.46.373-.834.833-.834z" transform="translate(-367 -168) translate(359 160) translate(8 8)"/>
                </g>
            </g>
        </g>
    </g>
</svg>
