<svg width="25" height="24" viewBox="0 0 25 24" xmlns="http://www.w3.org/2000/svg">
    <g fill="none" fill-rule="evenodd">
        <path d="M.5 0h24v24H.5z"/>
        <path d="M20.5 16c.627 0 1 .468 1 1v3c0 2-1.224 3-3 3h-12c-1.8 0-3-.969-3-3v-3c0-.532.373-1 1-1s1 .468 1 1v3c0 .532.55 1 1 1h12c.45 0 1-.468 1-1v-3c0-.532.373-1 1-1zm-8-15a.98.98 0 0 1 1 1l-.007 11.64 2.56-2.56c.427-.427.996-.427 1.423 0 .427.426.427.995 0 1.422l-4.318 4.316c-.077.073-.19.164-.305.164a1.212 1.212 0 0 1-.71 0c-.143 0-.285-.142-.356-.213L7.52 12.502c-.427-.427-.427-.996 0-1.422.426-.427.995-.427 1.422 0l2.56 2.56L11.5 2c0-.5.5-1 1-1z" fill="#2C2C33"/>
    </g>
</svg>
