<?xml version="1.0" encoding="UTF-8"?>
<svg width="165px" height="54px" viewBox="0 0 165 54" version="1.1" xmlns="http://www.w3.org/2000/svg" xmlns:xlink="http://www.w3.org/1999/xlink">
    <title>7144883E-B128-4F0F-BD66-88E043DAD680</title>
    <g id="1280" stroke="none" stroke-width="1" fill="none" fill-rule="evenodd">
        <g id="020-libreinversion/1280x800/020-enrolamiento/enrolamiento-1" transform="translate(-32.000000, -32.000000)" fill="#FFFFFF">
            <g id="av-villas-logo-copy" transform="translate(32.000000, 32.000000)">
                <g id="Group">
                    <path d="M36.3,4.33125 C28.565625,8.971875 24.853125,18.665625 24.853125,18.665625 C19.903125,11.446875 8.353125,13.096875 8.353125,13.096875 C26.090625,15.778125 24.75,29.2875 24.75,29.2875 C26.296875,21.8625 31.7625,12.99375 33.20625,11.240625 C40.425,2.0625 48.365625,0.61875 48.365625,0.61875 C43.10625,2.784375 39.496875,6.290625 39.496875,6.290625 C40.425,7.115625 41.04375,8.04375 41.6625,9.075 C45.375,16.190625 40.425,25.9875 28.4625,31.865625 C17.94375,37.021875 5.259375,35.784375 1.546875,28.66875 C-2.165625,21.553125 2.784375,12.065625 14.4375,6.084375 C22.06875,2.165625 30.628125,1.753125 36.3,4.33125 M20.728125,21.45 C20.728125,21.45 10.003125,19.696875 10.003125,23.71875 C10.003125,25.36875 11.75625,27.534375 17.53125,28.359375 C18.5625,28.565625 22.06875,28.978125 24.3375,27.534375 C24.3375,27.534375 22.996875,30.421875 16.396875,29.90625 C15.2625,29.803125 8.559375,29.2875 6.1875,24.95625 C5.56875,23.821875 5.465625,20.521875 10.415625,19.696875 C13.096875,19.284375 18.046875,19.59375 20.728125,21.45" id="Shape"></path>
                    <polygon id="Shape" points="86.625 10.621875 81.159375 10.621875 73.940625 23.925 73.8375 23.925 71.775 10.621875 66.4125 10.621875 69.7125 30.1125 75.4875 30.1125"></polygon>
                    <polygon id="Shape" points="116.221875 30.1125 121.06875 30.1125 125.19375 9.796875 120.24375 9.796875"></polygon>
                    <path d="M148.70625,29.08125 C150.15,29.7 152.2125,30.628125 155.203125,30.31875 C160.25625,29.803125 162.834375,28.359375 163.246875,24.75 C163.7625,20.00625 155.925,21.65625 155.821875,19.3875 C155.821875,18.35625 157.471875,17.94375 158.60625,17.94375 C160.359375,17.94375 162.1125,18.871875 163.659375,19.696875 L164.38125,15.88125 C162.525,15.2625 159.740625,14.953125 158.503125,14.953125 C154.790625,14.953125 150.665625,17.015625 150.665625,20.41875 C150.665625,25.36875 158.090625,23.71875 158.090625,25.78125 C158.090625,27.01875 156.234375,27.225 155.409375,27.225 C153.965625,27.225 151.59375,26.709375 149.634375,25.059375 L148.70625,29.08125 Z" id="Shape"></path>
                    <polygon id="Shape" points="110.34375 10.621875 104.98125 10.621875 97.659375 23.925 97.55625 23.925 95.49375 10.621875 90.13125 10.621875 93.43125 30.1125 99.20625 30.1125"></polygon>
                    <polygon id="Shape" points="124.471875 30.1125 129.421875 30.1125 133.44375 9.796875 128.49375 9.796875"></polygon>
                    <path d="M141.384375,30.1125 L146.540625,30.1125 C147.05625,25.78125 148.190625,22.275 148.396875,20.00625 C148.70625,16.809375 146.64375,15.05625 141.9,15.05625 C139.528125,15.05625 137.671875,15.365625 135.50625,15.675 L134.990625,19.284375 C136.74375,18.459375 138.80625,18.15 140.6625,18.15 C142.415625,18.15 143.34375,18.871875 143.34375,19.903125 C143.34375,20.109375 143.34375,20.315625 143.240625,20.521875 C142.51875,20.41875 141.590625,20.625 140.559375,20.625 C136.021875,20.83125 132.515625,22.6875 132.20625,26.19375 C132,29.08125 133.44375,30.421875 136.640625,30.421875 C138.6,30.421875 139.8375,29.7 141.4875,28.565625 L141.4875,28.875 L141.384375,30.1125 Z M137.259375,26.19375 C137.053125,24.54375 138.39375,23.409375 141.178125,23.30625 C141.4875,23.30625 142.10625,23.203125 142.725,23.203125 C142.51875,24.853125 142.209375,26.296875 142.209375,26.296875 C141.384375,26.915625 140.45625,27.225 139.425,27.328125 C138.39375,27.43125 137.3625,27.121875 137.259375,26.19375 L137.259375,26.19375 Z" id="Shape"></path>
                    <path d="M46.2,30.1125 L51.459375,30.1125 L53.625,25.9875 L60.43125,25.9875 L60.84375,30.1125 L66.20625,30.1125 L62.90625,10.621875 L57.234375,10.621875 L46.2,30.1125 Z M59.915625,22.48125 L55.48125,22.48125 L58.9875,15.984375 L59.915625,22.48125 Z" id="Shape"></path>
                    <path d="M107.86875,30.1125 L112.81875,30.1125 L115.70625,15.46875 L110.75625,15.46875 L107.86875,30.1125 Z M111.16875,13.303125 L116.428125,13.303125 L117.15,9.796875 L111.890625,9.796875 L111.16875,13.303125 Z" id="Shape"></path>
                </g>
                <g id="Group" transform="translate(105.187500, 35.062500)" fill-rule="nonzero">
                    <path d="M8.353125,1.2375 C9.178125,1.2375 9.9,1.340625 10.51875,1.65 C11.1375,1.959375 11.653125,2.26875 12.065625,2.68125 C12.478125,3.09375 12.7875,3.609375 12.99375,4.228125 C13.2,4.846875 13.303125,5.465625 13.303125,6.084375 C13.303125,7.0125 13.096875,7.8375 12.7875,8.765625 C12.478125,9.590625 11.9625,10.415625 11.240625,11.034375 C10.621875,11.75625 9.796875,12.271875 8.765625,12.684375 C7.8375,13.096875 6.703125,13.303125 5.465625,13.303125 L0.825,13.303125 L3.50625,1.2375 L8.353125,1.2375 Z M6.084375,11.446875 C6.80625,11.446875 7.528125,11.34375 8.146875,11.034375 C8.765625,10.725 9.28125,10.415625 9.796875,9.9 C10.209375,9.384375 10.621875,8.86875 10.828125,8.25 C11.034375,7.63125 11.240625,7.0125 11.240625,6.39375 C11.240625,5.98125 11.1375,5.465625 11.034375,5.053125 C10.93125,4.640625 10.725,4.33125 10.51875,4.021875 C10.209375,3.7125 9.9,3.50625 9.4875,3.3 C9.075,3.09375 8.559375,2.990625 7.940625,2.990625 L5.465625,2.990625 L3.609375,11.446875 L6.084375,11.446875 L6.084375,11.446875 Z" id="Shape"></path>
                    <path d="M15.984375,13.303125 L14.025,13.303125 L15.88125,4.95 L17.840625,4.95 L15.984375,13.303125 Z M16.190625,2.578125 C16.190625,2.371875 16.190625,2.165625 16.29375,1.959375 C16.396875,1.753125 16.5,1.65 16.603125,1.546875 C16.70625,1.44375 16.9125,1.340625 17.11875,1.340625 C17.325,1.2375 17.428125,1.2375 17.634375,1.2375 C17.840625,1.2375 18.15,1.340625 18.35625,1.44375 C18.5625,1.546875 18.665625,1.85625 18.665625,2.0625 C18.665625,2.26875 18.665625,2.475 18.5625,2.68125 C18.459375,2.8875 18.35625,2.990625 18.253125,3.09375 C18.15,3.196875 17.94375,3.3 17.7375,3.403125 C17.53125,3.50625 17.428125,3.50625 17.221875,3.50625 C17.015625,3.50625 16.70625,3.403125 16.5,3.3 C16.29375,3.196875 16.190625,2.8875 16.190625,2.578125 Z" id="Shape"></path>
                    <path d="M18.459375,15.365625 C18.975,15.675 19.59375,15.88125 20.2125,16.0875 C20.83125,16.29375 21.45,16.29375 22.06875,16.190625 C22.6875,16.0875 23.203125,15.88125 23.71875,15.46875 C24.234375,15.05625 24.54375,14.4375 24.75,13.6125 L25.1625,11.9625 C24.75,12.478125 24.3375,12.890625 23.71875,13.096875 C23.1,13.303125 22.584375,13.509375 21.8625,13.509375 C21.346875,13.509375 20.934375,13.40625 20.521875,13.2 C20.109375,12.99375 19.696875,12.7875 19.490625,12.375 C19.18125,12.065625 18.975,11.55 18.871875,11.034375 C18.76875,10.51875 18.76875,9.796875 18.975,9.075 C19.18125,8.353125 19.3875,7.63125 19.8,7.115625 C20.2125,6.6 20.625,6.084375 21.140625,5.775 C21.65625,5.465625 22.275,5.15625 22.89375,5.053125 C23.5125,4.846875 24.234375,4.846875 24.853125,4.846875 C25.471875,4.846875 26.090625,4.95 26.60625,5.053125 C27.225,5.15625 27.740625,5.3625 28.25625,5.671875 L26.503125,13.6125 C26.296875,14.746875 25.78125,15.571875 25.1625,16.29375 C24.54375,16.9125 23.821875,17.428125 22.996875,17.634375 C22.171875,17.840625 21.346875,17.94375 20.41875,17.840625 C19.490625,17.7375 18.665625,17.428125 17.94375,17.015625 L18.459375,15.365625 Z M26.19375,6.80625 C25.678125,6.6 25.059375,6.39375 24.440625,6.39375 C24.028125,6.39375 23.71875,6.496875 23.30625,6.6 C22.89375,6.703125 22.584375,6.909375 22.275,7.115625 C21.965625,7.321875 21.65625,7.63125 21.45,7.940625 C21.24375,8.25 21.0375,8.6625 20.934375,9.178125 C20.83125,9.590625 20.83125,9.9 20.83125,10.3125 C20.83125,10.621875 20.934375,10.93125 21.0375,11.1375 C21.140625,11.34375 21.346875,11.55 21.553125,11.653125 C21.759375,11.75625 22.06875,11.859375 22.48125,11.859375 C22.89375,11.859375 23.203125,11.75625 23.615625,11.653125 C23.925,11.446875 24.234375,11.240625 24.54375,11.034375 C24.853125,10.725 25.059375,10.51875 25.265625,10.209375 C25.471875,9.9 25.575,9.590625 25.678125,9.28125 L26.19375,6.80625 Z" id="Shape"></path>
                    <path d="M31.14375,13.303125 L29.184375,13.303125 L31.040625,4.95 L33,4.95 L31.14375,13.303125 Z M31.35,2.578125 C31.35,2.371875 31.35,2.165625 31.453125,1.959375 C31.55625,1.753125 31.659375,1.65 31.7625,1.546875 C31.865625,1.44375 32.071875,1.340625 32.278125,1.340625 C32.484375,1.2375 32.5875,1.2375 32.79375,1.2375 C33,1.2375 33.309375,1.340625 33.515625,1.44375 C33.721875,1.546875 33.825,1.85625 33.825,2.0625 C33.825,2.26875 33.825,2.475 33.721875,2.68125 C33.61875,2.8875 33.515625,2.990625 33.4125,3.09375 C33.309375,3.196875 33.103125,3.3 32.896875,3.403125 C32.690625,3.50625 32.5875,3.50625 32.38125,3.50625 C32.175,3.50625 31.865625,3.403125 31.659375,3.3 C31.453125,3.196875 31.35,2.8875 31.35,2.578125 Z" id="Shape"></path>
                    <path d="M38.3625,4.95 L41.353125,4.95 L41.04375,6.290625 L37.95,6.290625 L37.125,10.003125 C36.91875,10.725 37.021875,11.240625 37.228125,11.55 C37.434375,11.859375 37.846875,11.9625 38.3625,11.9625 C38.775,11.9625 39.39375,11.859375 39.909375,11.653125 L39.80625,13.096875 C38.98125,13.303125 38.15625,13.509375 37.5375,13.509375 C37.125,13.509375 36.7125,13.40625 36.3,13.303125 C35.8875,13.2 35.68125,12.99375 35.475,12.684375 C35.26875,12.375 35.165625,12.065625 35.0625,11.653125 C34.959375,11.240625 35.0625,10.725 35.165625,10.10625 L35.990625,6.39375 L34.2375,6.290625 L34.546875,5.053125 L36.3,5.053125 L37.021875,2.475 L38.775,2.475 L38.3625,4.95 Z" id="Shape"></path>
                    <path d="M50.015625,10.828125 C50.015625,11.034375 49.9125,11.240625 49.9125,11.34375 C49.9125,11.446875 49.9125,11.653125 49.9125,11.75625 C49.9125,11.859375 50.015625,11.9625 50.11875,11.9625 C50.221875,11.9625 50.428125,12.065625 50.634375,11.9625 L50.325,13.2 C50.015625,13.303125 49.70625,13.303125 49.396875,13.303125 C49.0875,13.303125 48.88125,13.2 48.571875,13.096875 C48.365625,12.99375 48.159375,12.7875 48.159375,12.58125 C48.05625,12.375 48.05625,11.9625 48.159375,11.55 C47.746875,12.16875 47.23125,12.58125 46.6125,12.890625 C45.99375,13.2 45.375,13.40625 44.653125,13.40625 C44.034375,13.40625 43.51875,13.303125 43.003125,13.096875 C42.590625,12.890625 42.178125,12.58125 41.971875,12.16875 C41.765625,11.75625 41.559375,11.240625 41.559375,10.725 C41.45625,10.209375 41.559375,9.590625 41.6625,9.075 C41.86875,8.353125 42.075,7.734375 42.4875,7.21875 C42.796875,6.703125 43.3125,6.290625 43.828125,5.878125 C44.34375,5.56875 44.859375,5.259375 45.58125,5.053125 C46.2,4.846875 46.921875,4.74375 47.64375,4.846875 C48.2625,4.846875 48.88125,4.95 49.5,5.053125 C50.11875,5.15625 50.634375,5.3625 51.15,5.671875 L50.015625,10.828125 Z M48.984375,6.703125 C48.675,6.6 48.365625,6.496875 48.05625,6.39375 C47.746875,6.290625 47.4375,6.290625 47.128125,6.290625 C46.303125,6.290625 45.58125,6.496875 44.9625,7.0125 C44.34375,7.425 43.93125,8.146875 43.725,9.075 C43.621875,9.4875 43.621875,9.796875 43.621875,10.10625 C43.621875,10.415625 43.725,10.725 43.828125,10.93125 C43.93125,11.1375 44.1375,11.34375 44.34375,11.55 C44.55,11.75625 44.859375,11.75625 45.271875,11.75625 C45.684375,11.75625 45.99375,11.653125 46.303125,11.55 C46.6125,11.446875 46.921875,11.240625 47.23125,11.034375 C47.540625,10.828125 47.746875,10.51875 47.953125,10.209375 C48.159375,9.9 48.2625,9.4875 48.365625,9.178125 L48.984375,6.703125 Z" id="Shape"></path>
                    <path d="M57.028125,0.61875 L54.8625,10.3125 C54.759375,10.93125 54.759375,11.34375 54.8625,11.55 C54.965625,11.75625 55.275,11.859375 55.6875,11.859375 C55.790625,11.859375 55.89375,11.859375 55.996875,11.859375 C56.1,11.859375 56.30625,11.859375 56.409375,11.75625 L56.1,13.2 C55.89375,13.2 55.6875,13.303125 55.48125,13.303125 C55.275,13.303125 55.06875,13.303125 54.8625,13.303125 C53.934375,13.303125 53.2125,13.096875 52.903125,12.58125 C52.59375,12.065625 52.490625,11.34375 52.8,10.10625 L54.965625,0.4125 L57.028125,0.4125 L57.028125,0.61875 Z" id="Shape"></path>
                </g>
            </g>
        </g>
    </g>
</svg>