<?xml version="1.0" encoding="UTF-8"?>
<svg width="24px" height="24px" viewBox="0 0 24 24" version="1.1" xmlns="http://www.w3.org/2000/svg" xmlns:xlink="http://www.w3.org/1999/xlink">
    <title>2BD80876-B9E8-4D49-A73F-B15252B508D1</title>
    <g id="1280" stroke="none" stroke-width="1" fill="none" fill-rule="evenodd">
        <g id="020-libreinversion/1280x800/020-enrolamiento/enrolamiento-2" transform="translate(-1049.000000, -376.000000)">
            <g id="form" transform="translate(783.000000, 332.000000)">
                <g id="Input/5-password/off/2-Focused" transform="translate(2.000000, 0.000000)">
                    <g id="Button/4-Btn-link/3-onli-icon/1-enabled" transform="translate(252.000000, 32.000000)">
                        <g id="1-IconBasic/24/visibility-off" transform="translate(12.000000, 12.000000)">
                            <rect id="fondo" fill-rule="nonzero" x="0" y="-8.52651283e-14" width="24" height="24"></rect>
                            <path d="M1.5,4 C1.89364075,3.46081573 2.48300277,3.59008905 3,4 C9.66666667,9 16,14 22,19 C22.2254988,19.1502471 23,19.8431027 22.2142899,20.6647135 C21.8214349,21.0755189 21.1685098,20.9936182 20.9563681,20.8250719 L20.9563681,20.8250719 L18.2170685,18.5601707 C16.554506,19.9355406 14.4763028,21 11.9997446,21 C5.11063869,21 1.25280222,12.8001445 1.06894606,12.4998705 C0.97701798,12.2004145 0.97701798,11.9001405 1.06894606,11.5998664 C1.15930272,11.4035018 2.13986889,9.32040146 3.93050216,7.25366479 L3.93050216,7.25366479 L1.85858469,5.61320279 C1.34001604,5.20329183 1.10635925,4.54000245 1.5,4 Z M5.5,8.5 C4.29629216,9.80827867 3.34806956,11.3380879 3,12 C3.8729239,13.4964613 7.28573954,19 12,19 C13.6507769,19 15.2790065,18.0680949 16.5,17.2 L16.5,17.2 L14.1981614,15.3790654 C13.5688077,15.8249765 12.8137403,16 11.9997446,16 C9.83904193,16 8.07119426,14.2499693 8.07119426,11.9999591 C8.07119426,11.5442297 8.15133669,11.108955 8.28412169,10.6990441 L8.28412169,10.6990441 Z M12.0000589,3 C18.8891649,3 22.7470014,11.1998555 22.9316432,11.5999482 C23.0227856,11.8004036 23.0227856,12.2004964 22.9316432,12.4001336 C22.8601436,12.5555889 22.2362898,13.8826858 21.0985816,15.4503293 C21.0985816,15.4503293 20.5,16.3 19.6630893,15.6663303 C18.8969291,15.0862295 19.5,14.3 19.5,14.3 C20.1607822,13.4229051 20.7328586,12.4581839 21,12 C20.1270761,10.5035387 16.7142605,5 12,5 C11.2776705,5 10.2776705,5.3 9,5.9 C9,5.9 7.8,6.6 7.20879888,5.60510275 C6.67937625,4.71416885 7.58829685,4.18718721 7.58829685,4.18718721 C8.88000421,3.46882031 10.3539963,3 12.0000589,3 Z M10,12 C9.5,13 11,15 12.5,14 L12.5,14 Z" id="Combined-Shape" fill="#2C2C33"></path>
                        </g>
                    </g>
                </g>
            </g>
        </g>
    </g>
</svg>