<?xml version="1.0" encoding="UTF-8"?>
<svg width="24px" height="24px" viewBox="0 0 24 24" version="1.1" xmlns="http://www.w3.org/2000/svg" xmlns:xlink="http://www.w3.org/1999/xlink">
    <title>6E62B97B-1C9C-4039-93D5-E3F2D88D61FB</title>
    <g id="1280" stroke="none" stroke-width="1" fill="none" fill-rule="evenodd">
        <g id="020-libreinversion/1280x800/020-enrolamiento/enrolamiento-2" transform="translate(-1049.000000, -496.000000)">
            <g id="form" transform="translate(783.000000, 332.000000)">
                <g id="Input/5-password/on/1-Enabled" transform="translate(2.000000, 120.000000)">
                    <g id="Button/4-Btn-link/3-onli-icon/1-enabled" transform="translate(252.000000, 32.000000)">
                        <g id="1-IconBasic/24/visibility" transform="translate(12.000000, 12.000000)">
                            <rect id="fondo" fill-rule="nonzero" x="0" y="-8.52651283e-14" width="24" height="24"></rect>
                            <path d="M22.9311065,11.6 C22.7473904,11.2 18.8893528,3 12,3 C5.11064718,3 1.2526096,11.2 1.06889353,11.6 C0.977035491,11.9 0.977035491,12.2 1.06889353,12.5 C1.2526096,12.8 5.11064718,21 12,21 C18.8893528,21 22.7473904,12.8 22.9311065,12.4 C23.0229645,12.2 23.0229645,11.8 22.9311065,11.6 Z M12,19 C7.09090909,19 3.90909091,13.6 3,12 C3.81818182,10.4 7.09090909,5 12,5 C16.9090909,5 20.0909091,10.4 21,12 C20.0909091,13.6 16.9090909,19 12,19 Z M12,8 C9.8,8 8,9.8 8,12 C8,14.2 9.8,16 12,16 C14.2,16 16,14.2 16,12 C16,9.8 14.2,8 12,8 Z M12,14 C10.9,14 10,13.1 10,12 C10,10.9 10.9,10 12,10 C13.1,10 14,10.9 14,12 C14,13.1 13.1,14 12,14 Z" id="Mask" fill="#0048DB"></path>
                        </g>
                    </g>
                </g>
            </g>
        </g>
    </g>
</svg>