<svg width="24" height="24" xmlns="http://www.w3.org/2000/svg">
    <g fill="none" fill-rule="evenodd">
        <path d="M0 0h24v24H0z"/>
        <path d="M17.575 1c.815 0 1.382.704 1.103 1.369l-1.956 3.967 1.657 1.595c3.495 3.523 3.495 9.1 0 12.525C16.68 22.119 14.384 23 11.988 23c-2.397 0-4.694-.88-6.392-2.544C3.9 18.792 3 16.542 3 14.193c0-2.246.822-4.403 2.467-6.042l.23-.22L7.29 6.367l-1.932-3.92C5 1.77 5.569 1 6.425 1h11.15zm-3.724 5.789H9.982L7.177 9.337C5.924 10.539 5.25 12.452 5.25 14.21c0 1.757.674 3.33 2.023 4.624 1.253 1.203 2.89 1.85 4.72 1.85 1.831 0 3.47-.647 4.818-1.85 2.54-2.53 2.6-6.796.087-9.32l-.183-.177-2.864-2.548zM12 7.947l.12.007c.466.054.777.423.777.885v.89h1.17l.12.007c.465.054.775.422.775.884l-.006.113c-.05.444-.4.777-.89.777h-1.17v1.336h.138l.163.006c1.238.087 2.18 1.154 2.18 2.443l-.006.167c-.08 1.269-1.075 2.283-2.337 2.283h-.137v.89l-.007.113c-.05.444-.399.778-.89.778l-.12-.007c-.465-.054-.776-.424-.776-.884v-.89H9.521l-.12-.006c-.465-.055-.776-.424-.776-.885l.006-.113c.051-.444.4-.778.89-.778h1.583v-1.336h-.137l-.163-.005c-1.238-.087-2.179-1.154-2.179-2.444l.005-.167c.08-1.268 1.075-2.282 2.337-2.282h.137v-.89c0-.5.365-.892.896-.892zm1.034 6.68h-.137v1.336h.137l.087-.008c.255-.048.464-.307.464-.66l-.007-.114c-.045-.33-.28-.554-.544-.554zm-1.93-3.117h-.137l-.087.008c-.256.049-.464.308-.464.66 0 .392.256.668.551.668h.137V11.51zm5.059-8.542H7.838l1.125 1.969h6.075l1.125-1.969z" fill="#283747"/>
    </g>
</svg>
