<svg width="24" height="24" transform="scale(1.1)" xmlns="http://www.w3.org/2000/svg">
    <path d="M20.5 7H17V5.5c0-1.53-.3-2.5-2-2.5H9c-1.7 0-2 .97-2 2.5V7H3.5C1.8 7 1 7.77 1 9.3v9.245C1 20.075 1.657 21 3.357 21h17.286c1.7 0 2.357-.925 2.357-2.455V9.3c0-1.53-.8-2.3-2.5-2.3zM9.004 6c-.054-1 .4-1 1-1H14c.6 0 .944 0 .999 1v1H9.004V6zM15 9v10H9V9h6zM3 18.167V9.833C3 9.333 3.4 9 4 9h3v10H4c-.6 0-1-.333-1-.833zm18 0c0 .5-.4.833-1 .833h-3V9h3c.6 0 1 .333 1 .833v8.334z" fill="#283747" fill-rule="evenodd"/>
</svg>
