<svg xmlns="http://www.w3.org/2000/svg" width="72" height="72" viewBox="0 0 72 72">
    <g fill="none" fill-rule="evenodd">
        <g>
            <g>
                <g>
                    <path stroke="#2C2C33" stroke-linecap="round" stroke-width="1.5" d="M43.097 16.646c.32 1.917.611 4.112.598 5.675-.083 1.796-.51 3.177-1.623 4.558-.738.917-1.049 2.11-.913 3.284l.063.542c.048.417.274.791.619 1.026.122.083.257.147.399.188l6.541 1.917c.824.182 1.685.637 2.536 1.343 1.332 1.11 2.25 2.66 2.587 4.365l.642 4.91" transform="translate(-604 -224) translate(246 224) translate(358)"/>
                    <path stroke="#2C2C33" stroke-linecap="round" stroke-width="1.5" d="M35.817 3.63c3.82 0 7.822 2.143 9.422 5.75.703 1.587.99 3.328 1.189 5.055.28 2.435.404 4.753 1.56 6.95.844 1.602 2.137 2.73 4.184 2.978 0 0-2.5 4.325-7.94 3.383M35.817 3.63c-3.82 0-7.821 2.143-9.42 5.75-.705 1.587-.991 3.328-1.19 5.055-.28 2.435-.404 4.753-1.56 6.95-.844 1.602-2.137 2.73-4.184 2.978 0 0 2.5 4.325 7.94 3.383M29.794 31.731L35.817 36.268 41.841 31.731" transform="translate(-604 -224) translate(246 224) translate(358)"/>
                    <path stroke="#2C2C33" stroke-linecap="round" stroke-width="1.5" d="M17.089 44.453l.641-4.91c.338-1.703 1.256-3.254 2.588-4.365.85-.705 1.711-1.16 2.536-1.342l6.54-1.917c.143-.041.277-.105.4-.188.345-.234.57-.609.619-1.026l.062-.542c.136-1.173-.174-2.367-.913-3.283-1.112-1.381-1.54-2.763-1.622-4.56-.016-1.85.397-4.59.776-6.702.345-1.917 1.61-3.534 3.377-4.32 1.427-.635 3.118-.265 4.106.953l.02.025c.694.864 1.207 1.871 1.974 2.67 1.246 1.297 3.14 1.925 4.906 1.627" transform="translate(-604 -224) translate(246 224) translate(358)"/>
                    <path fill="#E1001D" d="M57.59 67.444H14.41c.331-1.439 1.622-2.515 3.16-2.515h36.863c1.537 0 2.828 1.076 3.159 2.515zM16.216 44.057h-2.173c-1.1 0-2.107.505-2.764 1.386-.657.881-.855 1.991-.541 3.045l4.62 15.542c-1.477.793-2.485 2.35-2.485 4.141 0 .402.326.728.727.728h44.802c.4 0 .727-.326.727-.728 0-1.79-1.008-3.349-2.485-4.141l4.62-15.542c.314-1.054.117-2.163-.54-3.045-.658-.88-1.665-1.386-2.765-1.386H16.215z" transform="translate(-604 -224) translate(246 224) translate(358)"/>
                    <g stroke="#FFF" stroke-linecap="round" stroke-width="1.5">
                        <path d="M.364.595s1.777 2.59 5.541.522c3.531-1.94 5.997.116 5.997.116" transform="translate(-604 -224) translate(246 224) translate(358) translate(30 54.375)"/>
                    </g>
                </g>
            </g>
        </g>
    </g>
</svg>
