<svg width="72" height="72" xmlns="http://www.w3.org/2000/svg">
    <g fill="none" fill-rule="evenodd">
        <path d="M31.455 50.753h7.917s-.187 2.022.213 4.009c.306 1.523 1.425 2.875 3.081 3.723.464.238.247.798-.308.798H20.552c-.555 0-.771-.56-.308-.798 1.656-.848 2.776-2.2 3.082-3.723.399-1.987.212-4.009.212-4.009h7.917z" stroke="#2C2C33" stroke-width="1.5" stroke-linecap="round"/>
        <path d="M3.815 44.29V16.173a3.284 3.284 0 0 1 3.284-3.284H55.81a3.284 3.284 0 0 1 3.285 3.284V44.29H3.815z" fill="#2C2C33"/>
        <path d="M3.815 47.469V16.173a3.284 3.284 0 0 1 3.284-3.284H55.81a3.284 3.284 0 0 1 3.285 3.284v31.296a3.284 3.284 0 0 1-3.285 3.284H7.1a3.284 3.284 0 0 1-3.284-3.284z" stroke="#2C2C33" stroke-width="1.5" stroke-linecap="round"/>
        <path d="M66.075 59.188h-12.66a2.088 2.088 0 0 1-2.088-2.088V30.606c0-1.153.935-2.088 2.088-2.088h12.66c1.153 0 2.088.935 2.088 2.088V57.1a2.088 2.088 0 0 1-2.088 2.088" fill="#FFF"/>
        <path d="M66.075 59.188h-12.66a2.088 2.088 0 0 1-2.088-2.088V30.606c0-1.153.935-2.088 2.088-2.088h12.66c1.153 0 2.088.935 2.088 2.088V57.1a2.088 2.088 0 0 1-2.088 2.088z" stroke="#2C2C33" stroke-width="1.5" stroke-linecap="round"/>
        <path d="M62.297 31.17h-5.13c-.435 0-.85-.183-1.145-.503l-1.362-1.48h10.17l-1.398 1.49a1.555 1.555 0 0 1-1.135.492" fill="#2C2C33"/>
        <path d="M64.362 43.338a4.617 4.617 0 1 1-9.234 0 4.617 4.617 0 0 1 9.234 0" fill="#E1001D"/>
        <path stroke="#FFF" stroke-width=".75" stroke-linecap="round" d="m58.028 41.427 3.837 3.824M61.865 41.427l-3.837 3.824"/>
        <path d="M39.045 28.22a7.59 7.59 0 1 1-15.18-.001 7.59 7.59 0 0 1 15.18 0" fill="#E1001D"/>
        <path stroke="#FFF" stroke-width="1.5" stroke-linecap="round" d="m28.302 25.076 6.307 6.287M34.61 25.076l-6.308 6.287"/>
        <path d="M28.301 46.628s.972 1.416 3.03.285c1.93-1.06 3.278.064 3.278.064" stroke="#2C2C33" stroke-width="1.5" stroke-linecap="round"/>
    </g>
</svg>
