<svg xmlns="http://www.w3.org/2000/svg" width="72" height="72" viewBox="0 0 72 72">
    <g fill="none" fill-rule="evenodd">
        <g>
            <g>
                <g>
                    <g>
                        <path stroke="#2C2C33" stroke-linecap="round" stroke-linejoin="round" stroke-width="1.5" d="M49.33 13.837L49.33 4.233 44.303 4.233M6.577 23.083L6.577 26.41 18.14 26.41 27.01 26.41 29.12 26.41" transform="translate(-348 -280) translate(48 280) translate(300) translate(7.5 19.125)"/>
                        <g>
                            <path fill="#E1001D" d="M55.55 27.093c0 6.48-5.253 11.733-11.733 11.733s-11.733-5.253-11.733-11.733S37.337 15.36 43.817 15.36 55.55 20.613 55.55 27.093" transform="translate(-348 -280) translate(48 280) translate(300) translate(7.5 19.125)"/>
                            <g>
                                <path fill="#404A53" d="M0.316 0.109L10.067 9.827" transform="translate(-348 -280) translate(48 280) translate(300) translate(7.5 19.125) translate(38.625 22.125)"/>
                                <path stroke="#FFF" stroke-linecap="round" stroke-width="1.5" d="M0.316 0.109L10.067 9.827" transform="translate(-348 -280) translate(48 280) translate(300) translate(7.5 19.125) translate(38.625 22.125)"/>
                            </g>
                            <g>
                                <path fill="#404A53" d="M10.067 0.109L0.317 9.827" transform="translate(-348 -280) translate(48 280) translate(300) translate(7.5 19.125) translate(38.625 22.125)"/>
                                <path stroke="#FFF" stroke-linecap="round" stroke-width="1.5" d="M10.067 0.109L0.317 9.827" transform="translate(-348 -280) translate(48 280) translate(300) translate(7.5 19.125) translate(38.625 22.125)"/>
                            </g>
                            <path fill="#0048DB" d="M46.399 13.938V.856c0-.415-.336-.75-.75-.75H.625C.28.106 0 .386 0 .73v22.311c0 .345.28.626.625.626H30.69c1.546-5.756 6.798-9.995 13.042-9.995.913 0 1.805.092 2.668.265z" transform="translate(-348 -280) translate(48 280) translate(300) translate(7.5 19.125)"/>
                            <path stroke="#FFF" stroke-linecap="round" stroke-width="1.5" d="M5.736 14.101c0 1.532 1.242 2.774 2.774 2.774s2.774-1.242 2.774-2.774-1.137-2.24-2.774-2.774c-1.457-.475-2.774-1.242-2.774-2.773 0-1.533 1.242-2.775 2.774-2.775s2.774 1.242 2.774 2.775M8.51 4.233L8.51 5.799M8.51 16.875L8.51 18.441M17.296 11.272L41.625 11.272M17.296 6.467L41.625 6.467M17.456 16.453s1.336 1.947 4.166.393c2.653-1.459 4.506.087 4.506.087" transform="translate(-348 -280) translate(48 280) translate(300) translate(7.5 19.125)"/>
                        </g>
                    </g>
                </g>
            </g>
        </g>
    </g>
</svg>
